<svg width="29" height="29" viewBox="0 0 29 29" fill="none" xmlns="http://www.w3.org/2000/svg">
<path d="M10.5284 9.7155L18.4531 9.02218C18.5349 9.01498 18.6173 9.02397 18.6957 9.04865C18.774 9.07332 18.8467 9.1132 18.9096 9.16599C18.9725 9.21879 19.0244 9.28347 19.0623 9.35633C19.1003 9.4292 19.1234 9.50882 19.1305 9.59064L19.8239 17.5153C19.8383 17.6805 19.7865 17.8447 19.6799 17.9718C19.5733 18.0988 19.4206 18.1783 19.2554 18.1928C19.0902 18.2073 18.926 18.1555 18.7989 18.0489C18.6719 17.9423 18.5924 17.7896 18.5779 17.6243L18.0166 11.2025L10.148 20.58C10.0415 20.707 9.88884 20.7864 9.72371 20.8009C9.55858 20.8153 9.39448 20.7636 9.2675 20.657C9.14052 20.5505 9.06107 20.3979 9.04662 20.2327C9.03217 20.0676 9.08391 19.9035 9.19046 19.7765L17.0591 10.3991L10.6374 10.9614C10.4722 10.9759 10.308 10.9241 10.1809 10.8175C10.0539 10.7109 9.97438 10.5582 9.95992 10.393C9.94547 10.2277 9.99724 10.0636 10.1038 9.9365C10.2105 9.80945 10.3632 9.72995 10.5284 9.7155Z" fill="white"/>
</svg>
