<svg width="29" height="29" viewBox="0 0 29 29" fill="none" xmlns="http://www.w3.org/2000/svg">
<path d="M10.5283 19.2845L18.453 19.9779C18.5348 19.9851 18.6173 19.9761 18.6956 19.9514C18.7739 19.9267 18.8466 19.8868 18.9096 19.834C18.9725 19.7812 19.0244 19.7166 19.0623 19.6437C19.1002 19.5708 19.1234 19.4912 19.1305 19.4094L19.8238 11.4847C19.8383 11.3195 19.7865 11.1553 19.6799 11.0282C19.5733 10.9012 19.4206 10.8217 19.2553 10.8072C19.0901 10.7928 18.9259 10.8445 18.7989 10.9512C18.6718 11.0578 18.5923 11.2105 18.5779 11.3757L18.0166 17.7975L10.148 8.42003C10.0414 8.29305 9.88878 8.2136 9.72365 8.19915C9.55852 8.1847 9.39442 8.23644 9.26744 8.34299C9.14046 8.44954 9.061 8.60217 9.04656 8.7673C9.03211 8.93243 9.08385 9.09653 9.1904 9.22351L17.059 18.601L10.6373 18.0386C10.4721 18.0241 10.3079 18.0759 10.1809 18.1825C10.0538 18.2891 9.97431 18.4418 9.95986 18.6071C9.9454 18.7723 9.99718 18.9365 10.1038 19.0635C10.2104 19.1906 10.3631 19.2701 10.5283 19.2845Z" fill="#FF0A0A"/>
</svg>
