<svg width="32" height="32" viewBox="0 0 32 32" fill="none" xmlns="http://www.w3.org/2000/svg">
<path d="M26.7076 11.2925C26.6147 11.1995 26.5044 11.1258 26.383 11.0754C26.2616 11.0251 26.1315 10.9992 26.0001 10.9992C25.8687 10.9992 25.7385 11.0251 25.6171 11.0754C25.4957 11.1258 25.3854 11.1995 25.2926 11.2925L16.0001 20.5862L6.70757 11.2925C6.51993 11.1049 6.26543 10.9994 6.00007 10.9994C5.7347 10.9994 5.48021 11.1049 5.29257 11.2925C5.10493 11.4801 4.99951 11.7346 4.99951 12C4.99951 12.2654 5.10493 12.5199 5.29257 12.7075L15.2926 22.7075C15.3854 22.8005 15.4957 22.8742 15.6171 22.9246C15.7385 22.9749 15.8687 23.0008 16.0001 23.0008C16.1315 23.0008 16.2616 22.9749 16.383 22.9246C16.5044 22.8742 16.6147 22.8005 16.7076 22.7075L26.7076 12.7075C26.8005 12.6146 26.8743 12.5043 26.9246 12.3829C26.975 12.2615 27.0009 12.1314 27.0009 12C27.0009 11.8686 26.975 11.7385 26.9246 11.6171C26.8743 11.4957 26.8005 11.3854 26.7076 11.2925Z" fill="white" fill-opacity="0.65"/>
</svg>
