<svg width="35" height="35" viewBox="0 0 35 35" fill="none" xmlns="http://www.w3.org/2000/svg">
<path d="M17.5 3.28125C14.6878 3.28125 11.9388 4.11517 9.60049 5.67754C7.26223 7.23992 5.43978 9.46058 4.36359 12.0587C3.28741 14.6569 3.00583 17.5158 3.55447 20.2739C4.1031 23.0321 5.4573 25.5656 7.44583 27.5542C9.43436 29.5427 11.9679 30.8969 14.7261 31.4455C17.4842 31.9942 20.3431 31.7126 22.9413 30.6364C25.5394 29.5602 27.7601 27.7378 29.3225 25.3995C30.8848 23.0613 31.7188 20.3122 31.7188 17.5C31.7148 13.7302 30.2155 10.1159 27.5498 7.45022C24.8841 4.78455 21.2698 3.28523 17.5 3.28125ZM29.4834 16.4309C29.1352 16.4145 28.7866 16.4062 28.4375 16.4062C26.4086 16.4068 24.3887 16.6753 22.4301 17.2047C21.9526 15.7877 21.3367 14.4212 20.5912 13.125C22.5353 11.9527 24.2953 10.4991 25.8139 8.81152C27.921 10.8219 29.2252 13.53 29.4834 16.4309ZM24.1008 7.4457C22.7346 8.94685 21.1556 10.2394 19.4141 11.282C17.9555 9.22909 16.1716 7.42805 14.1326 5.95C15.8053 5.46171 17.564 5.34257 19.2873 5.60081C21.0105 5.85906 22.6571 6.48854 24.1131 7.4457H24.1008ZM11.71 6.95625C13.9448 8.36363 15.8931 10.1811 17.4522 12.3129C14.7236 13.5705 11.7545 14.2208 8.75001 14.2188C7.82273 14.2183 6.8965 14.1566 5.97735 14.0342C6.89194 11.0175 8.94909 8.47758 11.71 6.95625ZM5.46876 17.5C5.4687 17.0597 5.49289 16.6197 5.54122 16.182C6.6043 16.3313 7.6765 16.4062 8.75001 16.4062C12.181 16.4095 15.5691 15.6433 18.6649 14.1641C19.3469 15.3419 19.9106 16.5843 20.3479 17.8732C19.186 18.3097 18.0616 18.8401 16.9859 19.4592C13.9851 21.1928 11.412 23.5785 9.45684 26.44C8.2013 25.3137 7.19723 23.9354 6.51007 22.395C5.82291 20.8546 5.4681 19.1867 5.46876 17.5ZM11.2109 27.7539C12.986 25.1285 15.3348 22.941 18.0797 21.3568C18.9974 20.8272 19.9551 20.3701 20.944 19.9896C21.2824 21.4915 21.4534 23.0261 21.4539 24.5656C21.4546 26.0623 21.2947 27.5547 20.9768 29.0172C19.352 29.508 17.6418 29.6492 15.9586 29.4315C14.2753 29.2137 12.6573 28.642 11.2109 27.7539ZM23.3871 27.9904C23.5559 26.8589 23.6409 25.7165 23.6414 24.5725C23.6412 22.8017 23.437 21.0369 23.033 19.3129C24.7952 18.8374 26.6123 18.5956 28.4375 18.5938C28.7839 18.5938 29.1307 18.6024 29.4779 18.6197C29.2948 20.5572 28.6451 22.4216 27.5844 24.0532C26.5237 25.6849 25.0835 27.0353 23.3871 27.9891V27.9904Z" fill="white" fill-opacity="0.65"/>
</svg>
