<svg width="35" height="35" viewBox="0 0 35 35" fill="none" xmlns="http://www.w3.org/2000/svg">
<path d="M13.8104 22.2833C13.5333 22.2833 13.2563 22.1813 13.0375 21.9625C11.8417 20.7667 11.1854 19.1771 11.1854 17.5C11.1854 14.0146 14.0146 11.1854 17.5 11.1854C19.1771 11.1854 20.7667 11.8417 21.9625 13.0375C22.1667 13.2417 22.2833 13.5188 22.2833 13.8104C22.2833 14.1021 22.1667 14.3792 21.9625 14.5833L14.5833 21.9625C14.3646 22.1813 14.0875 22.2833 13.8104 22.2833ZM17.5 13.3729C15.225 13.3729 13.3729 15.225 13.3729 17.5C13.3729 18.2292 13.5625 18.9292 13.9125 19.5417L19.5417 13.9125C18.9292 13.5625 18.2292 13.3729 17.5 13.3729Z" fill="#292D32"/>
<path d="M8.16668 26.9937C7.91877 26.9937 7.65627 26.9062 7.4521 26.7312C5.89168 25.4042 4.49168 23.7708 3.29585 21.875C1.75002 19.4687 1.75002 15.5458 3.29585 13.125C6.85418 7.55416 12.0313 4.34583 17.5 4.34583C20.7083 4.34583 23.8729 5.45416 26.6438 7.53958C27.125 7.90416 27.2271 8.58957 26.8625 9.07083C26.4979 9.55207 25.8125 9.65416 25.3313 9.28958C22.9396 7.48124 20.2271 6.53333 17.5 6.53333C12.7896 6.53333 8.28335 9.36249 5.13335 14.3062C4.0396 16.0125 4.0396 18.9875 5.13335 20.6937C6.2271 22.4 7.48127 23.8729 8.86668 25.0687C9.31877 25.4625 9.3771 26.1479 8.98335 26.6146C8.77918 26.8625 8.47293 26.9937 8.16668 26.9937Z" fill="#292D32"/>
<path d="M17.5 30.6541C15.5604 30.6541 13.6646 30.2604 11.8417 29.4875C11.2875 29.2541 11.025 28.6125 11.2583 28.0583C11.4917 27.5041 12.1333 27.2416 12.6875 27.475C14.2333 28.1312 15.8521 28.4666 17.4854 28.4666C22.1958 28.4666 26.7021 25.6375 29.8521 20.6937C30.9458 18.9875 30.9458 16.0125 29.8521 14.3062C29.4 13.5916 28.9042 12.9062 28.3792 12.2646C28 11.7979 28.0729 11.1125 28.5396 10.7187C29.0062 10.3396 29.6917 10.3979 30.0854 10.8791C30.6542 11.5791 31.2083 12.3375 31.7042 13.125C33.25 15.5312 33.25 19.4541 31.7042 21.875C28.1458 27.4458 22.9687 30.6541 17.5 30.6541Z" fill="#292D32"/>
<path d="M18.5063 23.7271C17.9958 23.7271 17.5292 23.3625 17.4271 22.8375C17.3104 22.2396 17.7042 21.6708 18.3021 21.5688C19.9063 21.2771 21.2479 19.9354 21.5396 18.3313C21.6563 17.7333 22.225 17.3542 22.8229 17.4563C23.4208 17.5729 23.8146 18.1417 23.6979 18.7396C23.2313 21.2625 21.2188 23.2604 18.7104 23.7271C18.6375 23.7125 18.5792 23.7271 18.5063 23.7271Z" fill="#292D32"/>
<path d="M2.91664 33.1771C2.63956 33.1771 2.36248 33.075 2.14373 32.8563C1.72081 32.4333 1.72081 31.7333 2.14373 31.3104L13.0375 20.4167C13.4604 19.9938 14.1604 19.9938 14.5833 20.4167C15.0062 20.8396 15.0062 21.5396 14.5833 21.9625L3.68956 32.8563C3.47081 33.075 3.19373 33.1771 2.91664 33.1771Z" fill="#292D32"/>
<path d="M21.1896 14.9041C20.9125 14.9041 20.6354 14.8021 20.4167 14.5833C19.9938 14.1604 19.9938 13.4604 20.4167 13.0375L31.3104 2.14373C31.7333 1.72081 32.4333 1.72081 32.8563 2.14373C33.2792 2.56664 33.2792 3.26664 32.8563 3.68956L21.9625 14.5833C21.7438 14.8021 21.4667 14.9041 21.1896 14.9041Z" fill="#292D32"/>
</svg>
