<svg width="30" height="30" viewBox="0 0 30 30" fill="none" xmlns="http://www.w3.org/2000/svg">
<path d="M26.9133 25.5867L21.0457 19.7203C22.7464 17.6786 23.5944 15.0597 23.4134 12.4087C23.2324 9.75758 22.0363 7.27834 20.0739 5.48668C18.1116 3.69502 15.534 2.72888 12.8774 2.78926C10.2208 2.84963 7.68982 3.93187 5.81086 5.81083C3.9319 7.68979 2.84966 10.2208 2.78929 12.8774C2.72891 15.534 3.69505 18.1115 5.48671 20.0739C7.27837 22.0363 9.75761 23.2324 12.4087 23.4134C15.0598 23.5944 17.6786 22.7464 19.7203 21.0457L25.5867 26.9133C25.6738 27.0004 25.7773 27.0695 25.8911 27.1166C26.0049 27.1638 26.1268 27.188 26.25 27.188C26.3732 27.188 26.4952 27.1638 26.609 27.1166C26.7228 27.0695 26.8262 27.0004 26.9133 26.9133C27.0004 26.8262 27.0695 26.7228 27.1166 26.609C27.1638 26.4952 27.188 26.3732 27.188 26.25C27.188 26.1268 27.1638 26.0048 27.1166 25.891C27.0695 25.7772 27.0004 25.6738 26.9133 25.5867ZM4.68752 13.125C4.68752 11.4562 5.18237 9.82491 6.1095 8.43737C7.03662 7.04983 8.35438 5.96837 9.89613 5.32976C11.4379 4.69114 13.1344 4.52405 14.7711 4.84962C16.4078 5.17518 17.9112 5.97877 19.0912 7.15878C20.2712 8.33879 21.0748 9.8422 21.4004 11.4789C21.726 13.1156 21.5589 14.8121 20.9203 16.3539C20.2816 17.8956 19.2002 19.2134 17.8126 20.1405C16.4251 21.0676 14.7938 21.5625 13.125 21.5625C10.888 21.56 8.74335 20.6703 7.16155 19.0885C5.57975 17.5067 4.69 15.362 4.68752 13.125Z" fill="#2A2D74"/>
</svg>
