<svg width="35" height="35" viewBox="0 0 35 35" fill="none" xmlns="http://www.w3.org/2000/svg">
<path d="M27.7083 4.375H7.29167C6.51812 4.375 5.77625 4.68229 5.22927 5.22927C4.68229 5.77625 4.375 6.51812 4.375 7.29167V27.7083C4.375 28.4819 4.68229 29.2237 5.22927 29.7707C5.77625 30.3177 6.51812 30.625 7.29167 30.625H27.7083C28.4819 30.625 29.2237 30.3177 29.7707 29.7707C30.3177 29.2237 30.625 28.4819 30.625 27.7083V7.29167C30.625 6.51812 30.3177 5.77625 29.7707 5.22927C29.2237 4.68229 28.4819 4.375 27.7083 4.375ZM27.7083 7.29167V27.7083H7.29167V7.29167H27.7083ZM14.5833 24.7917L8.75 18.9583L10.8063 16.8875L14.5833 20.6646L24.1938 11.0542L26.25 13.125" fill="black"/>
</svg>
