<svg width="35" height="35" viewBox="0 0 35 35" fill="none" xmlns="http://www.w3.org/2000/svg">
<path d="M15.3125 29.5312C15.3125 29.8213 15.1973 30.0995 14.9921 30.3046C14.787 30.5098 14.5088 30.625 14.2188 30.625H6.5625C5.98234 30.625 5.42594 30.3945 5.0157 29.9843C4.60547 29.5741 4.375 29.0177 4.375 28.4375V6.5625C4.375 5.98234 4.60547 5.42594 5.0157 5.0157C5.42594 4.60547 5.98234 4.375 6.5625 4.375H14.2188C14.5088 4.375 14.787 4.49023 14.9921 4.69535C15.1973 4.90047 15.3125 5.17867 15.3125 5.46875C15.3125 5.75883 15.1973 6.03703 14.9921 6.24215C14.787 6.44727 14.5088 6.5625 14.2188 6.5625H6.5625V28.4375H14.2188C14.5088 28.4375 14.787 28.5527 14.9921 28.7579C15.1973 28.963 15.3125 29.2412 15.3125 29.5312ZM30.3051 16.7262L24.8363 11.2574C24.6311 11.0522 24.3527 10.9369 24.0625 10.9369C23.7723 10.9369 23.4939 11.0522 23.2887 11.2574C23.0834 11.4627 22.9681 11.741 22.9681 12.0312C22.9681 12.3215 23.0834 12.5998 23.2887 12.8051L26.8912 16.4062H14.2188C13.9287 16.4062 13.6505 16.5215 13.4454 16.7266C13.2402 16.9317 13.125 17.2099 13.125 17.5C13.125 17.7901 13.2402 18.0683 13.4454 18.2734C13.6505 18.4785 13.9287 18.5938 14.2188 18.5938H26.8912L23.2887 22.1949C23.0834 22.4002 22.9681 22.6785 22.9681 22.9688C22.9681 23.259 23.0834 23.5373 23.2887 23.7426C23.4939 23.9478 23.7723 24.0631 24.0625 24.0631C24.3527 24.0631 24.6311 23.9478 24.8363 23.7426L30.3051 18.2738C30.4068 18.1722 30.4874 18.0516 30.5425 17.9188C30.5975 17.7861 30.6259 17.6437 30.6259 17.5C30.6259 17.3563 30.5975 17.2139 30.5425 17.0812C30.4874 16.9484 30.4068 16.8278 30.3051 16.7262Z" fill="#FF0A0A"/>
</svg>
