<svg width="80" height="80" viewBox="0 0 80 80" fill="none" xmlns="http://www.w3.org/2000/svg">
<path d="M72.1625 66.25C67.4031 58.0219 60.0687 52.1219 51.5094 49.325C55.7432 46.8046 59.0327 42.964 60.8725 38.3931C62.7124 33.8222 63.001 28.7738 61.6939 24.023C60.3869 19.2722 57.5565 15.0819 53.6374 12.0954C49.7183 9.10894 44.9273 7.49152 40 7.49152C35.0727 7.49152 30.2816 9.10894 26.3626 12.0954C22.4435 15.0819 19.6131 19.2722 18.3061 24.023C16.999 28.7738 17.2876 33.8222 19.1275 38.3931C20.9673 42.964 24.2568 46.8046 28.4906 49.325C19.9312 52.1188 12.5969 58.0188 7.83749 66.25C7.66296 66.5346 7.54719 66.8513 7.49702 67.1813C7.44685 67.5114 7.46329 67.8481 7.54538 68.1717C7.62747 68.4953 7.77354 68.7992 7.97497 69.0654C8.1764 69.3317 8.42911 69.5549 8.71819 69.7218C9.00728 69.8888 9.32688 69.9962 9.65814 70.0377C9.9894 70.0791 10.3256 70.0538 10.6469 69.9632C10.9683 69.8727 11.2682 69.7186 11.529 69.5103C11.7898 69.3019 12.0063 69.0434 12.1656 68.75C18.0531 58.575 28.4594 52.5 40 52.5C51.5406 52.5 61.9469 58.575 67.8344 68.75C67.9937 69.0434 68.2101 69.3019 68.471 69.5103C68.7318 69.7186 69.0317 69.8727 69.353 69.9632C69.6744 70.0538 70.0106 70.0791 70.3418 70.0377C70.6731 69.9962 70.9927 69.8888 71.2818 69.7218C71.5709 69.5549 71.8236 69.3317 72.025 69.0654C72.2264 68.7992 72.3725 68.4953 72.4546 68.1717C72.5367 67.8481 72.5531 67.5114 72.503 67.1813C72.4528 66.8513 72.337 66.5346 72.1625 66.25ZM22.5 30C22.5 26.5388 23.5263 23.1554 25.4493 20.2775C27.3722 17.3997 30.1053 15.1567 33.303 13.8321C36.5007 12.5076 40.0194 12.161 43.4141 12.8363C46.8087 13.5115 49.9269 15.1782 52.3744 17.6256C54.8218 20.0731 56.4885 23.1913 57.1637 26.5859C57.839 29.9806 57.4924 33.4993 56.1679 36.697C54.8433 39.8947 52.6003 42.6278 49.7225 44.5507C46.8446 46.4737 43.4612 47.5 40 47.5C35.3602 47.4951 30.9119 45.6497 27.6311 42.3689C24.3503 39.0881 22.505 34.6398 22.5 30Z" fill="white"/>
</svg>
