<svg width="22" height="12" viewBox="0 0 22 12" fill="none" xmlns="http://www.w3.org/2000/svg">
<path d="M21.7081 0.2933C21.6152 0.200323 21.5049 0.126564 21.3835 0.0762396C21.2621 0.0259151 21.132 1.43051e-05 21.0006 1.43051e-05C20.8691 1.43051e-05 20.739 0.0259151 20.6176 0.0762396C20.4962 0.126564 20.3859 0.200323 20.2931 0.2933L11.0006 9.58705L1.70806 0.2933C1.52042 0.105659 1.26592 0.000243187 1.00056 0.000243187C0.735192 0.000243187 0.480697 0.105659 0.293056 0.2933C0.105415 0.48094 5.23096e-09 0.735436 0 1.0008C-5.23096e-09 1.26616 0.105415 1.52066 0.293056 1.7083L10.2931 11.7083C10.3859 11.8013 10.4962 11.875 10.6176 11.9254C10.739 11.9757 10.8691 12.0016 11.0006 12.0016C11.132 12.0016 11.2621 11.9757 11.3835 11.9254C11.5049 11.875 11.6152 11.8013 11.7081 11.7083L21.7081 1.7083C21.801 1.61543 21.8748 1.50514 21.9251 1.38374C21.9754 1.26234 22.0013 1.13222 22.0013 1.0008C22.0013 0.869385 21.9754 0.739258 21.9251 0.61786C21.8748 0.496462 21.801 0.386172 21.7081 0.2933Z" fill="#2A2D74"/>
</svg>
